<svg version="1.1" id="Layer_1" xmlns="http://www.w3.org/2000/svg" xmlns:xlink="http://www.w3.org/1999/xlink" x="0px" y="0px"
	 width="100%" viewBox="0 0 500 500" enable-background="new 0 0 500 500" xml:space="preserve">
<path fill="#FFFFFF" opacity="1.000000" stroke="none" 
	d="
M291.000000,501.000000 
	C194.000031,501.000000 97.500046,501.000000 1.000052,501.000000 
	C1.000035,334.333405 1.000035,167.666794 1.000017,1.000141 
	C167.666565,1.000094 334.333130,1.000094 500.999756,1.000047 
	C500.999847,167.666519 500.999847,334.333038 500.999939,500.999786 
	C431.166656,501.000000 361.333344,501.000000 291.000000,501.000000 
M334.500000,299.005493 
	C364.592133,299.005493 394.684296,299.005493 424.824707,299.005493 
	C424.824707,266.774261 424.824707,235.049698 424.824707,203.221954 
	C308.739838,203.221954 192.893311,203.221954 76.964157,203.221954 
	C76.964157,235.217804 76.964157,266.985840 76.964157,299.005493 
	C162.613693,299.005493 248.056839,299.005493 334.500000,299.005493 
z"/>
<path fill="#030303" opacity="1.000000" stroke="none" 
	d="
M334.000000,299.005493 
	C248.056839,299.005493 162.613693,299.005493 76.964157,299.005493 
	C76.964157,266.985840 76.964157,235.217804 76.964157,203.221954 
	C192.893311,203.221954 308.739838,203.221954 424.824707,203.221954 
	C424.824707,235.049698 424.824707,266.774261 424.824707,299.005493 
	C394.684296,299.005493 364.592133,299.005493 334.000000,299.005493 
M237.500000,295.998810 
	C299.046753,295.998810 360.593475,295.998810 422.044617,295.998810 
	C422.044617,265.647736 422.044617,236.039017 422.044617,206.389267 
	C307.705872,206.389267 193.553741,206.389267 79.460022,206.389267 
	C79.460022,236.373550 79.460022,265.969238 79.460022,295.998810 
	C131.959091,295.998810 184.229538,295.998810 237.500000,295.998810 
z"/>
<path fill="#FDFDFD" opacity="1.000000" stroke="none" 
	d="
M237.000000,295.998810 
	C184.229538,295.998810 131.959091,295.998810 79.460022,295.998810 
	C79.460022,265.969238 79.460022,236.373550 79.460022,206.389267 
	C193.553741,206.389267 307.705872,206.389267 422.044617,206.389267 
	C422.044617,236.039017 422.044617,265.647736 422.044617,295.998810 
	C360.593475,295.998810 299.046753,295.998810 237.000000,295.998810 
M130.500000,289.998566 
	C170.572266,289.998566 210.644531,289.998566 250.620239,289.998566 
	C250.620239,263.624664 250.620239,238.019394 250.620239,212.282410 
	C195.670074,212.282410 140.950974,212.282410 86.284485,212.282410 
	C86.284485,238.301926 86.284485,264.039459 86.284485,289.998566 
	C100.879875,289.998566 115.189934,289.998566 130.500000,289.998566 
M315.890717,237.798248 
	C313.493195,237.413666 311.095673,237.029083 308.050781,236.540649 
	C308.050781,241.197937 308.050781,244.857239 308.050781,248.564270 
	C302.235901,245.134460 302.108765,234.807098 292.396118,237.180069 
	C292.396118,245.843430 292.396118,254.249283 292.396118,262.636230 
	C295.013245,262.636230 297.375580,262.636230 300.157440,262.636230 
	C300.157440,258.569244 300.157440,254.886902 300.157440,251.322250 
	C306.023865,254.451553 305.946289,264.931519 315.938263,262.722687 
	C315.938263,254.654205 315.938263,246.704361 315.890717,237.798248 
M321.164398,251.482300 
	C321.164398,255.238007 321.164398,258.993713 321.164398,262.896973 
	C326.050293,262.896973 330.372620,263.212982 334.630829,262.825256 
	C341.569519,262.193451 345.939362,257.483765 346.339264,250.853073 
	C346.744263,244.137894 343.378937,238.627518 336.963440,237.555267 
	C331.902191,236.709366 326.586548,237.385254 321.164398,237.385254 
	C321.164398,241.901840 321.164398,246.198059 321.164398,251.482300 
M395.566101,244.144409 
	C393.600494,236.629715 388.528107,235.971176 373.720245,237.392258 
	C373.720245,245.787903 373.720245,254.200684 373.720245,262.809143 
	C376.164764,262.809143 378.410309,262.809143 380.880493,262.809143 
	C381.009674,260.418335 381.131134,258.170685 381.313232,254.800598 
	C382.975677,256.081970 384.601105,256.677917 384.874268,257.652740 
	C386.554962,263.650513 390.787994,263.664215 395.912811,262.625854 
	C394.458679,259.785919 393.064758,257.063599 391.670837,254.341278 
	C392.103241,254.386337 392.535645,254.431396 392.968018,254.476456 
	C393.888184,251.287491 394.808319,248.098526 395.566101,244.144409 
M400.216858,259.128540 
	C404.214172,263.442474 410.636688,265.163422 415.459503,262.362061 
	C417.550629,261.147400 419.813812,258.203613 419.845917,256.013672 
	C419.881226,253.608734 417.861450,250.722885 415.936920,248.884018 
	C414.424377,247.438766 411.629211,247.413040 409.534149,246.467850 
	C408.478729,245.991699 407.644806,244.929108 406.881744,243.992386 
	C406.751251,243.832184 407.457550,242.532242 407.821014,242.511108 
	C409.053436,242.439453 410.368561,242.508408 411.537292,242.882431 
	C414.144928,243.716934 416.683258,244.768097 420.088409,246.045578 
	C417.777527,236.714188 408.326538,233.414825 402.119476,238.274078 
	C397.839661,241.624573 398.276367,248.121460 403.147308,250.778000 
	C405.144409,251.867188 407.570831,252.141617 409.674316,253.074509 
	C410.761719,253.556793 411.648285,254.604935 412.424561,255.560699 
	C412.549072,255.714020 411.657837,257.204010 411.165161,257.246124 
	C409.931732,257.351654 408.593231,257.167999 407.412811,256.762726 
	C404.820312,255.872620 402.299530,254.773697 399.749451,253.760040 
	C399.499603,254.239777 399.249756,254.719513 398.999908,255.199265 
	C399.305573,256.275482 399.611237,257.351715 400.216858,259.128540 
M358.014587,255.355392 
	C358.842194,254.524689 359.577515,253.130280 360.515930,252.976746 
	C362.693573,252.620392 364.969299,252.863297 367.269958,252.863297 
	C367.269958,250.495148 367.269958,248.885803 367.269958,247.544373 
	C364.572510,245.206055 359.126678,249.265381 357.428833,242.747986 
	C361.783997,242.747986 365.028168,242.747986 368.548370,242.747986 
	C368.430756,240.565155 368.337555,238.835373 368.250031,237.210999 
	C362.094086,237.210999 356.375977,237.210999 350.825867,237.210999 
	C350.825867,245.951736 350.825867,254.339920 350.825867,262.691925 
	C357.021790,262.691925 362.921051,262.691925 368.998291,262.691925 
	C368.903992,260.622833 368.824249,258.873077 368.749512,257.232635 
	C364.965729,256.888672 361.561432,256.579224 358.014587,255.355392 
M265.061310,245.354462 
	C268.237457,244.450119 271.413574,243.545776 274.617004,242.633667 
	C274.617004,240.987396 274.617004,239.076126 274.617004,237.020142 
	C268.888763,237.020142 263.445312,237.020142 257.839722,237.020142 
	C257.839722,245.720688 257.839722,254.254364 257.839722,262.705444 
	C260.409241,262.705444 262.654907,262.705444 264.879700,262.705444 
	C265.046997,260.008148 265.195587,257.611847 265.363708,254.901001 
	C268.448853,254.901001 271.042053,254.901001 273.555023,254.901001 
	C273.555023,252.648636 273.555023,250.780655 273.555023,248.726547 
	C271.209930,248.726547 269.174774,248.969772 267.250061,248.614594 
	C266.403198,248.458298 265.781067,247.084488 265.061310,245.354462 
M286.691986,254.424652 
	C286.691986,248.651138 286.691986,242.877625 286.691986,237.076050 
	C283.803314,237.076050 281.549957,237.076050 279.336548,237.076050 
	C279.336548,245.864975 279.336548,254.409775 279.336548,262.674500 
	C281.947174,262.674500 284.197418,262.674500 286.691986,262.674500 
	C286.691986,260.018799 286.691986,257.706726 286.691986,254.424652 
z"/>
<path fill="#010101" opacity="1.000000" stroke="none" 
	d="
M130.000000,289.998566 
	C115.189934,289.998566 100.879875,289.998566 86.284485,289.998566 
	C86.284485,264.039459 86.284485,238.301926 86.284485,212.282410 
	C140.950974,212.282410 195.670074,212.282410 250.620239,212.282410 
	C250.620239,238.019394 250.620239,263.624664 250.620239,289.998566 
	C210.644531,289.998566 170.572266,289.998566 130.000000,289.998566 
M135.915649,249.303558 
	C135.915649,251.453293 135.915649,253.603027 135.915649,257.186401 
	C131.006042,250.256226 127.158096,244.641342 123.076218,239.202026 
	C122.148796,237.966171 120.410706,237.338669 118.386734,235.992981 
	C118.386734,245.863815 118.386734,254.302567 118.386734,262.741302 
	C119.348770,262.916077 120.310814,263.090851 121.272850,263.265625 
	C122.303062,257.116272 121.261925,250.557297 121.966934,243.192703 
	C126.398643,249.451706 130.098114,254.854843 134.018127,260.092957 
	C135.054947,261.478394 136.771347,262.355225 139.126266,264.217163 
	C139.126266,254.876724 139.185593,247.239304 139.049240,239.605347 
	C139.032684,238.677795 137.962402,237.769089 137.380463,236.851639 
	C136.892288,237.861023 136.055389,238.846115 135.983047,239.884460 
	C135.787094,242.697342 135.915741,245.532822 135.915649,249.303558 
M181.643158,239.771240 
	C185.246750,241.226166 188.850342,242.681076 192.692551,244.232330 
	C192.306656,240.128067 190.388550,237.191498 186.736938,236.997101 
	C183.166321,236.807022 179.057663,237.176392 176.027740,238.837265 
	C172.386658,240.833130 173.032837,246.625946 176.783310,248.864090 
	C179.153900,250.278748 182.186493,250.589798 184.543259,252.020172 
	C186.502487,253.209259 187.908890,255.309235 189.560181,257.005707 
	C187.356537,258.034821 185.162354,259.830292 182.946350,259.857635 
	C181.076218,259.880737 179.171585,257.867279 177.300095,256.725891 
	C176.250351,256.085693 175.236938,255.385925 173.685913,254.372345 
	C173.571854,261.475037 180.243927,265.001617 187.276169,262.857941 
	C189.594376,262.151276 191.969193,259.354248 192.908142,256.960083 
	C194.155396,253.779770 191.875259,251.255035 188.833984,249.985382 
	C186.247681,248.905701 183.406281,248.391708 180.911377,247.155792 
	C179.462952,246.438263 177.615021,244.841141 177.538589,243.545929 
	C177.471146,242.403046 179.611969,241.129852 181.643158,239.771240 
M161.155762,239.919556 
	C162.583176,239.481750 164.010574,239.043945 165.437988,238.606140 
	C165.300751,238.128036 165.163513,237.649918 165.026260,237.171814 
	C159.987778,237.171814 154.949280,237.171814 149.832962,237.171814 
	C149.832962,245.894257 149.832962,254.316498 149.832962,262.724579 
	C155.316757,262.724579 160.572327,262.724579 165.827896,262.724579 
	C165.931992,262.184326 166.036087,261.644104 166.140182,261.103851 
	C162.351944,258.288025 157.181488,261.256348 153.279999,259.504242 
	C153.279999,256.697754 153.279999,253.983643 153.279999,250.896774 
	C157.229172,250.896774 160.819504,250.896774 165.611359,250.896774 
	C161.628967,245.814575 156.573456,249.706543 153.151947,247.518051 
	C153.151947,245.083450 153.151947,242.667816 153.151947,239.919571 
	C155.669571,239.919571 157.959869,239.919571 161.155762,239.919556 
M211.858978,249.518158 
	C211.858978,246.420944 211.858978,243.323715 211.858978,239.746124 
	C215.150040,239.746124 217.847626,239.746124 220.545197,239.746124 
	C220.597656,239.099762 220.650116,238.453384 220.702576,237.807022 
	C214.547729,235.621826 207.894653,237.279175 201.520157,236.905975 
	C200.792572,236.863388 199.979675,238.277679 199.206345,239.016449 
	C199.422424,239.396667 199.638519,239.776871 199.854614,240.157089 
	C202.585541,240.157089 205.316483,240.157089 208.223877,240.157089 
	C208.223877,247.123215 208.154633,253.592392 208.296341,260.056946 
	C208.318344,261.060913 209.304733,262.043793 209.845169,263.036407 
	C210.516266,262.016327 211.677658,261.036804 211.766083,259.968475 
	C212.025665,256.832336 211.858810,253.660873 211.858978,249.518158 
z"/>
<path fill="#0D0D0D" opacity="1.000000" stroke="none" 
	d="
M315.914490,238.276382 
	C315.938263,246.704361 315.938263,254.654205 315.938263,262.722687 
	C305.946289,264.931519 306.023865,254.451553 300.157440,251.322250 
	C300.157440,254.886902 300.157440,258.569244 300.157440,262.636230 
	C297.375580,262.636230 295.013245,262.636230 292.396118,262.636230 
	C292.396118,254.249283 292.396118,245.843430 292.396118,237.180069 
	C302.108765,234.807098 302.235901,245.134460 308.050781,248.564270 
	C308.050781,244.857239 308.050781,241.197937 308.050781,236.540649 
	C311.095673,237.029083 313.493195,237.413666 315.914490,238.276382 
z"/>
<path fill="#090909" opacity="1.000000" stroke="none" 
	d="
M321.164398,250.988281 
	C321.164398,246.198059 321.164398,241.901840 321.164398,237.385254 
	C326.586548,237.385254 331.902191,236.709366 336.963440,237.555267 
	C343.378937,238.627518 346.744263,244.137894 346.339264,250.853073 
	C345.939362,257.483765 341.569519,262.193451 334.630829,262.825256 
	C330.372620,263.212982 326.050293,262.896973 321.164398,262.896973 
	C321.164398,258.993713 321.164398,255.238007 321.164398,250.988281 
M333.862183,243.923874 
	C332.296967,243.923874 330.731720,243.923874 329.197968,243.923874 
	C329.197968,248.183960 329.197968,252.090439 329.197968,256.023163 
	C333.214264,256.206451 336.994415,256.397186 338.326202,251.731110 
	C339.336578,248.191299 338.074829,245.594818 333.862183,243.923874 
z"/>
<path fill="#050505" opacity="1.000000" stroke="none" 
	d="
M395.647278,244.526978 
	C394.808319,248.098526 393.888184,251.287491 392.968018,254.476456 
	C392.535645,254.431396 392.103241,254.386337 391.670837,254.341278 
	C393.064758,257.063599 394.458679,259.785919 395.912811,262.625854 
	C390.787994,263.664215 386.554962,263.650513 384.874268,257.652740 
	C384.601105,256.677917 382.975677,256.081970 381.313232,254.800598 
	C381.131134,258.170685 381.009674,260.418335 380.880493,262.809143 
	C378.410309,262.809143 376.164764,262.809143 373.720245,262.809143 
	C373.720245,254.200684 373.720245,245.787903 373.720245,237.392258 
	C388.528107,235.971176 393.600494,236.629715 395.647278,244.526978 
M384.144043,249.564987 
	C385.445740,248.245544 386.747406,246.926102 388.049103,245.606628 
	C385.947906,244.469513 383.846680,243.332382 381.745453,242.195251 
	C381.443512,242.666107 381.141571,243.136978 380.839630,243.607834 
	C381.882904,245.527069 378.793365,248.926132 384.144043,249.564987 
z"/>
<path fill="#0D0D0D" opacity="1.000000" stroke="none" 
	d="
M400.066895,258.778259 
	C399.611237,257.351715 399.305573,256.275482 398.999908,255.199265 
	C399.249756,254.719513 399.499603,254.239777 399.749451,253.760040 
	C402.299530,254.773697 404.820312,255.872620 407.412811,256.762726 
	C408.593231,257.167999 409.931732,257.351654 411.165161,257.246124 
	C411.657837,257.204010 412.549072,255.714020 412.424561,255.560699 
	C411.648285,254.604935 410.761719,253.556793 409.674316,253.074509 
	C407.570831,252.141617 405.144409,251.867188 403.147308,250.778000 
	C398.276367,248.121460 397.839661,241.624573 402.119476,238.274078 
	C408.326538,233.414825 417.777527,236.714188 420.088409,246.045578 
	C416.683258,244.768097 414.144928,243.716934 411.537292,242.882431 
	C410.368561,242.508408 409.053436,242.439453 407.821014,242.511108 
	C407.457550,242.532242 406.751251,243.832184 406.881744,243.992386 
	C407.644806,244.929108 408.478729,245.991699 409.534149,246.467850 
	C411.629211,247.413040 414.424377,247.438766 415.936920,248.884018 
	C417.861450,250.722885 419.881226,253.608734 419.845917,256.013672 
	C419.813812,258.203613 417.550629,261.147400 415.459503,262.362061 
	C410.636688,265.163422 404.214172,263.442474 400.066895,258.778259 
z"/>
<path fill="#030303" opacity="1.000000" stroke="none" 
	d="
M358.085876,255.812592 
	C361.561432,256.579224 364.965729,256.888672 368.749512,257.232635 
	C368.824249,258.873077 368.903992,260.622833 368.998291,262.691925 
	C362.921051,262.691925 357.021790,262.691925 350.825867,262.691925 
	C350.825867,254.339920 350.825867,245.951736 350.825867,237.210999 
	C356.375977,237.210999 362.094086,237.210999 368.250031,237.210999 
	C368.337555,238.835373 368.430756,240.565155 368.548370,242.747986 
	C365.028168,242.747986 361.783997,242.747986 357.428833,242.747986 
	C359.126678,249.265381 364.572510,245.206055 367.269958,247.544373 
	C367.269958,248.885803 367.269958,250.495148 367.269958,252.863297 
	C364.969299,252.863297 362.693573,252.620392 360.515930,252.976746 
	C359.577515,253.130280 358.842194,254.524689 358.085876,255.812592 
z"/>
<path fill="#050505" opacity="1.000000" stroke="none" 
	d="
M265.059082,245.808960 
	C265.781067,247.084488 266.403198,248.458298 267.250061,248.614594 
	C269.174774,248.969772 271.209930,248.726547 273.555023,248.726547 
	C273.555023,250.780655 273.555023,252.648636 273.555023,254.901001 
	C271.042053,254.901001 268.448853,254.901001 265.363708,254.901001 
	C265.195587,257.611847 265.046997,260.008148 264.879700,262.705444 
	C262.654907,262.705444 260.409241,262.705444 257.839722,262.705444 
	C257.839722,254.254364 257.839722,245.720688 257.839722,237.020142 
	C263.445312,237.020142 268.888763,237.020142 274.617004,237.020142 
	C274.617004,239.076126 274.617004,240.987396 274.617004,242.633667 
	C271.413574,243.545776 268.237457,244.450119 265.059082,245.808960 
z"/>
<path fill="#0D0D0D" opacity="1.000000" stroke="none" 
	d="
M286.691986,254.909668 
	C286.691986,257.706726 286.691986,260.018799 286.691986,262.674500 
	C284.197418,262.674500 281.947174,262.674500 279.336548,262.674500 
	C279.336548,254.409775 279.336548,245.864975 279.336548,237.076050 
	C281.549957,237.076050 283.803314,237.076050 286.691986,237.076050 
	C286.691986,242.877625 286.691986,248.651138 286.691986,254.909668 
z"/>
<path fill="#E9E9E9" opacity="1.000000" stroke="none" 
	d="
M135.915649,248.831451 
	C135.915741,245.532822 135.787094,242.697342 135.983047,239.884460 
	C136.055389,238.846115 136.892288,237.861023 137.380463,236.851639 
	C137.962402,237.769089 139.032684,238.677795 139.049240,239.605347 
	C139.185593,247.239304 139.126266,254.876724 139.126266,264.217163 
	C136.771347,262.355225 135.054947,261.478394 134.018127,260.092957 
	C130.098114,254.854843 126.398643,249.451706 121.966934,243.192703 
	C121.261925,250.557297 122.303062,257.116272 121.272850,263.265625 
	C120.310814,263.090851 119.348770,262.916077 118.386734,262.741302 
	C118.386734,254.302567 118.386734,245.863815 118.386734,235.992981 
	C120.410706,237.338669 122.148796,237.966171 123.076218,239.202026 
	C127.158096,244.641342 131.006042,250.256226 135.915649,257.186401 
	C135.915649,253.603027 135.915649,251.453293 135.915649,248.831451 
z"/>
<path fill="#E9E9E9" opacity="1.000000" stroke="none" 
	d="
M181.210449,239.842712 
	C179.611969,241.129852 177.471146,242.403046 177.538589,243.545929 
	C177.615021,244.841141 179.462952,246.438263 180.911377,247.155792 
	C183.406281,248.391708 186.247681,248.905701 188.833984,249.985382 
	C191.875259,251.255035 194.155396,253.779770 192.908142,256.960083 
	C191.969193,259.354248 189.594376,262.151276 187.276169,262.857941 
	C180.243927,265.001617 173.571854,261.475037 173.685913,254.372345 
	C175.236938,255.385925 176.250351,256.085693 177.300095,256.725891 
	C179.171585,257.867279 181.076218,259.880737 182.946350,259.857635 
	C185.162354,259.830292 187.356537,258.034821 189.560181,257.005707 
	C187.908890,255.309235 186.502487,253.209259 184.543259,252.020172 
	C182.186493,250.589798 179.153900,250.278748 176.783310,248.864090 
	C173.032837,246.625946 172.386658,240.833130 176.027740,238.837265 
	C179.057663,237.176392 183.166321,236.807022 186.736938,236.997101 
	C190.388550,237.191498 192.306656,240.128067 192.692551,244.232330 
	C188.850342,242.681076 185.246750,241.226166 181.210449,239.842712 
z"/>
<path fill="#FDFDFD" opacity="1.000000" stroke="none" 
	d="
M160.702957,239.919556 
	C157.959869,239.919571 155.669571,239.919571 153.151947,239.919571 
	C153.151947,242.667816 153.151947,245.083450 153.151947,247.518051 
	C156.573456,249.706543 161.628967,245.814575 165.611359,250.896774 
	C160.819504,250.896774 157.229172,250.896774 153.279999,250.896774 
	C153.279999,253.983643 153.279999,256.697754 153.279999,259.504242 
	C157.181488,261.256348 162.351944,258.288025 166.140182,261.103851 
	C166.036087,261.644104 165.931992,262.184326 165.827896,262.724579 
	C160.572327,262.724579 155.316757,262.724579 149.832962,262.724579 
	C149.832962,254.316498 149.832962,245.894257 149.832962,237.171814 
	C154.949280,237.171814 159.987778,237.171814 165.026260,237.171814 
	C165.163513,237.649918 165.300751,238.128036 165.437988,238.606140 
	C164.010574,239.043945 162.583176,239.481750 160.702957,239.919556 
z"/>
<path fill="#DFDFDF" opacity="1.000000" stroke="none" 
	d="
M211.858978,250.010712 
	C211.858810,253.660873 212.025665,256.832336 211.766083,259.968475 
	C211.677658,261.036804 210.516266,262.016327 209.845169,263.036407 
	C209.304733,262.043793 208.318344,261.060913 208.296341,260.056946 
	C208.154633,253.592392 208.223877,247.123215 208.223877,240.157089 
	C205.316483,240.157089 202.585541,240.157089 199.854614,240.157089 
	C199.638519,239.776871 199.422424,239.396667 199.206345,239.016449 
	C199.979675,238.277679 200.792572,236.863388 201.520157,236.905975 
	C207.894653,237.279175 214.547729,235.621826 220.702576,237.807022 
	C220.650116,238.453384 220.597656,239.099762 220.545197,239.746124 
	C217.847626,239.746124 215.150040,239.746124 211.858978,239.746124 
	C211.858978,243.323715 211.858978,246.420944 211.858978,250.010712 
z"/>
<path fill="#FDFDFD" opacity="1.000000" stroke="none" 
	d="
M334.284363,243.989685 
	C338.074829,245.594818 339.336578,248.191299 338.326202,251.731110 
	C336.994415,256.397186 333.214264,256.206451 329.197968,256.023163 
	C329.197968,252.090439 329.197968,248.183960 329.197968,243.923874 
	C330.731720,243.923874 332.296967,243.923874 334.284363,243.989685 
z"/>
<path fill="#E9E9E9" opacity="1.000000" stroke="none" 
	d="
M383.735321,249.580353 
	C378.793365,248.926132 381.882904,245.527069 380.839630,243.607834 
	C381.141571,243.136978 381.443512,242.666107 381.745453,242.195251 
	C383.846680,243.332382 385.947906,244.469513 388.049103,245.606628 
	C386.747406,246.926102 385.445740,248.245544 383.735321,249.580353 
z"/>
</svg>